<svg xmlns="http://www.w3.org/2000/svg" viewBox="-6507 15779.971 187 55">
  <defs>
    <style>
      .cls-1 {
        fill: #1f1f1f;
      }

      .cls-2 {
        fill: #fff;
      }
    </style>
  </defs>
  <g id="Group_3395" data-name="Group 3395" transform="translate(-6507 15779.971)">
    <g id="Group_250" data-name="Group 250">
      <path id="Path_1252" data-name="Path 1252" class="cls-1" d="M27.35,53.2a25.85,25.85,0,0,1,0-51.7h132a25.85,25.85,0,1,1,0,51.7Z" transform="translate(0.15 0.15)"/>
      <path id="Path_1253" data-name="Path 1253" class="cls-2" d="M159.5,3.3a24.271,24.271,0,0,1,24.2,24.2h0a24.271,24.271,0,0,1-24.2,24.2H27.5A24.271,24.271,0,0,1,3.3,27.5h0A24.271,24.271,0,0,1,27.5,3.3h132m0-3.3H27.5a27.5,27.5,0,0,0,0,55h132a27.5,27.5,0,0,0,0-55Z"/>
    </g>
    <g id="Group_251" data-name="Group 251" transform="translate(42.077 13.42)">
      <path id="Path_1254" data-name="Path 1254" class="cls-2" d="M54.915,24.642a5.415,5.415,0,0,1,2.64-4.62,5.588,5.588,0,0,0-4.51-2.42c-1.87-.22-3.74,1.1-4.62,1.1-.99,0-2.42-1.1-4.07-1.1a5.933,5.933,0,0,0-5.06,3.08c-2.2,3.74-.55,9.24,1.54,12.32.99,1.54,2.2,3.19,3.85,3.08,1.54-.11,2.09-.99,3.96-.99s2.42.99,4.07.99,2.75-1.54,3.74-2.97A10.957,10.957,0,0,0,58.1,29.7a5.727,5.727,0,0,1-3.19-5.06" transform="translate(-38.252 -11.662)"/>
      <path id="Path_1255" data-name="Path 1255" class="cls-2" d="M50.941,16.16a4.934,4.934,0,0,0,1.21-3.96,5.454,5.454,0,0,0-4.95,5.61,4.311,4.311,0,0,0,3.74-1.65" transform="translate(-37.358 -12.2)"/>
      <path id="Path_1256" data-name="Path 1256" class="cls-2" d="M74.88,35.36h-2.2l-1.21-3.74H67.29l-1.1,3.74H64.1L68.17,22.6H70.7Zm-3.74-5.28-1.1-3.3c-.11-.33-.33-1.1-.66-2.42h0c-.11.55-.33,1.32-.55,2.42l-1.1,3.3Z" transform="translate(-35.667 -11.16)"/>
      <path id="Path_1257" data-name="Path 1257" class="cls-2" d="M84.22,30.32a5.358,5.358,0,0,1-1.32,3.74,3.813,3.813,0,0,1-2.86,1.21,2.88,2.88,0,0,1-2.64-1.32v4.84H75.31v-9.9a26.805,26.805,0,0,0-.11-2.97h1.98l.11,1.43h0a3.416,3.416,0,0,1,3.08-1.65,3.487,3.487,0,0,1,2.75,1.32,4.8,4.8,0,0,1,1.1,3.3m-2.09.11a4.332,4.332,0,0,0-.55-2.2,2.137,2.137,0,0,0-1.76-.88,1.822,1.822,0,0,0-1.32.55,2.04,2.04,0,0,0-.77,1.32,1.4,1.4,0,0,0-.11.66v1.54a2.239,2.239,0,0,0,.66,1.65,2.172,2.172,0,0,0,1.54.66,2.137,2.137,0,0,0,1.76-.88,5.244,5.244,0,0,0,.55-2.42" transform="translate(-34.557 -10.85)"/>
      <path id="Path_1258" data-name="Path 1258" class="cls-2" d="M93.81,30.32a5.358,5.358,0,0,1-1.32,3.74,3.813,3.813,0,0,1-2.86,1.21,2.88,2.88,0,0,1-2.64-1.32v4.84H85.01v-9.9a26.805,26.805,0,0,0-.11-2.97h1.76l.11,1.43h0a3.416,3.416,0,0,1,3.08-1.65,3.487,3.487,0,0,1,2.75,1.32,4.393,4.393,0,0,1,1.21,3.3m-2.09.11a4.332,4.332,0,0,0-.55-2.2,2.137,2.137,0,0,0-1.76-.88,1.822,1.822,0,0,0-1.32.55,2.04,2.04,0,0,0-.77,1.32,1.4,1.4,0,0,0-.11.66v1.54a2.239,2.239,0,0,0,.66,1.65,2.172,2.172,0,0,0,1.54.66,2.137,2.137,0,0,0,1.76-.88,5.244,5.244,0,0,0,.55-2.42" transform="translate(-33.587 -10.85)"/>
      <path id="Path_1259" data-name="Path 1259" class="cls-2" d="M104.41,31.85a3.261,3.261,0,0,1-1.1,2.64,4.9,4.9,0,0,1-3.41,1.1,6.115,6.115,0,0,1-3.3-.77l.44-1.65a5.449,5.449,0,0,0,2.97.77,2.8,2.8,0,0,0,1.76-.55,1.634,1.634,0,0,0,.66-1.43,1.822,1.822,0,0,0-.55-1.32,6.215,6.215,0,0,0-1.76-.99q-3.3-1.32-3.3-3.63a3.289,3.289,0,0,1,1.21-2.53,4.7,4.7,0,0,1,3.08-.99,6.959,6.959,0,0,1,2.86.55l-.55,1.65a4.613,4.613,0,0,0-2.42-.55,2.277,2.277,0,0,0-1.65.55,1.527,1.527,0,0,0-.55,1.1,1.576,1.576,0,0,0,.55,1.21,5.678,5.678,0,0,0,1.87.99,7.062,7.062,0,0,1,2.42,1.54,3.452,3.452,0,0,1,.77,2.31" transform="translate(-32.417 -11.17)"/>
      <path id="Path_1260" data-name="Path 1260" class="cls-2" d="M110.39,27.65h-2.2v4.4c0,1.1.44,1.65,1.21,1.65a2.144,2.144,0,0,0,.88-.11l.11,1.54a5.734,5.734,0,0,1-1.54.22,2.266,2.266,0,0,1-1.87-.77,3.539,3.539,0,0,1-.66-2.42V27.54H105V26h1.32V24.35l1.98-.55v2.31h2.2v1.54Z" transform="translate(-31.577 -11.04)"/>
      <path id="Path_1261" data-name="Path 1261" class="cls-2" d="M119.82,30.42a5.459,5.459,0,0,1-1.21,3.52,4.637,4.637,0,0,1-3.41,1.43,4.069,4.069,0,0,1-3.19-1.32,4.955,4.955,0,0,1-1.21-3.41,5.248,5.248,0,0,1,1.21-3.52,4.309,4.309,0,0,1,3.3-1.32,4.069,4.069,0,0,1,3.19,1.32,3.826,3.826,0,0,1,1.32,3.3m-2.09,0a4.651,4.651,0,0,0-.55-2.2,1.936,1.936,0,0,0-1.87-1.1,2.042,2.042,0,0,0-1.87,1.1,4.332,4.332,0,0,0-.55,2.2,4.651,4.651,0,0,0,.55,2.2,2.139,2.139,0,0,0,3.74,0,3.655,3.655,0,0,0,.55-2.2" transform="translate(-30.997 -10.84)"/>
      <path id="Path_1262" data-name="Path 1262" class="cls-2" d="M125.56,27.67h-.66a1.736,1.736,0,0,0-1.65.77,3.043,3.043,0,0,0-.55,1.76v4.84h-2.09V28.77a23.016,23.016,0,0,0-.11-2.86h1.76l.11,1.76h.11a3.35,3.35,0,0,1,.99-1.43,2.42,2.42,0,0,1,1.43-.44h.55Z" transform="translate(-30.027 -10.84)"/>
      <path id="Path_1263" data-name="Path 1263" class="cls-2" d="M134.15,30.09a2.145,2.145,0,0,1-.11.88h-6.16a2.647,2.647,0,0,0,.88,2.09,3.071,3.071,0,0,0,1.98.66,5.6,5.6,0,0,0,2.42-.44l.33,1.43a8.56,8.56,0,0,1-3.08.55,4.489,4.489,0,0,1-3.3-1.21,4.955,4.955,0,0,1-1.21-3.41,4.9,4.9,0,0,1,1.1-3.41,3.82,3.82,0,0,1,3.19-1.43,3.291,3.291,0,0,1,2.97,1.43,3.93,3.93,0,0,1,.99,2.86m-1.98-.55a2.328,2.328,0,0,0-.44-1.54,1.81,1.81,0,0,0-1.65-.88,2.089,2.089,0,0,0-1.65.88,2.628,2.628,0,0,0-.55,1.54Z" transform="translate(-29.487 -10.84)"/>
      <path id="Path_1264" data-name="Path 1264" class="cls-2" d="M70.26,15.78a3.156,3.156,0,0,1-.99,2.53,3.974,3.974,0,0,1-2.64.77,5.376,5.376,0,0,1-1.43-.11V12.81a8.891,8.891,0,0,1,1.76-.11,3.738,3.738,0,0,1,2.42.66,3.151,3.151,0,0,1,.88,2.42m-.99.11a2.277,2.277,0,0,0-.55-1.65,2.16,2.16,0,0,0-1.65-.55,1.631,1.631,0,0,0-.77.11v4.62h.66a2.322,2.322,0,0,0,1.76-.66,3.146,3.146,0,0,0,.55-1.87" transform="translate(-35.557 -12.15)"/>
      <path id="Path_1265" data-name="Path 1265" class="cls-2" d="M75.09,16.61a3.324,3.324,0,0,1-.55,1.76,2.239,2.239,0,0,1-1.65.66,1.846,1.846,0,0,1-1.54-.66,2.16,2.16,0,0,1-.55-1.65,2.5,2.5,0,0,1,.66-1.76,2.393,2.393,0,0,1,3.3,0,6.232,6.232,0,0,1,.33,1.65m-1.1.11a3.255,3.255,0,0,0-.22-1.1,1.122,1.122,0,0,0-.88-.55.98.98,0,0,0-.88.55,1.809,1.809,0,0,0-.22,1.1,3.254,3.254,0,0,0,.22,1.1.979.979,0,0,0,1.76,0,3.909,3.909,0,0,0,.22-1.1" transform="translate(-34.997 -11.99)"/>
      <path id="Path_1266" data-name="Path 1266" class="cls-2" d="M81.77,14.41l-1.32,4.51h-.88l-.55-1.98c-.11-.44-.22-.99-.33-1.43h0c-.11.55-.22.99-.33,1.43l-.66,1.98h-.88L75.5,14.41h.99l.55,2.09c.11.55.22.99.33,1.43h0a14.347,14.347,0,0,0,.33-1.43l.66-2.2h.77l.66,2.09c.11.55.22.99.33,1.43h0c.11-.44.22-.99.33-1.43L81,14.3l.77.11Z" transform="translate(-34.527 -11.99)"/>
      <path id="Path_1267" data-name="Path 1267" class="cls-2" d="M86.06,18.93h-.99V16.29c0-.77-.33-1.21-.88-1.21a1.128,1.128,0,0,0-1.1,1.1v2.64H82.1V14.31h.88v.66h0a1.326,1.326,0,0,1,.55-.55,1.185,1.185,0,0,1,.88-.22,1.412,1.412,0,0,1,1.1.44,2.176,2.176,0,0,1,.55,1.54Z" transform="translate(-33.867 -12)"/>
      <rect id="Rectangle_215" data-name="Rectangle 215" class="cls-2" width="0.99" height="6.6" transform="translate(53.623 0.33)"/>
      <path id="Path_1268" data-name="Path 1268" class="cls-2" d="M93.39,16.61a3.324,3.324,0,0,1-.55,1.76,2.239,2.239,0,0,1-1.65.66,1.846,1.846,0,0,1-1.54-.66,2.16,2.16,0,0,1-.55-1.65,2.5,2.5,0,0,1,.66-1.76,2.239,2.239,0,0,1,1.65-.66,1.846,1.846,0,0,1,1.54.66,2.651,2.651,0,0,1,.44,1.65m-.99.11a3.255,3.255,0,0,0-.22-1.1,1.155,1.155,0,0,0-.99-.55.98.98,0,0,0-.88.55,1.809,1.809,0,0,0-.22,1.1,3.255,3.255,0,0,0,.22,1.1.979.979,0,0,0,1.76,0,2.123,2.123,0,0,0,.33-1.1" transform="translate(-33.167 -11.99)"/>
      <path id="Path_1269" data-name="Path 1269" class="cls-2" d="M97.53,18.92h-.88l-.11-.55h0a1.568,1.568,0,0,1-1.32.66,1.072,1.072,0,0,1-.99-.44,1.249,1.249,0,0,1-.33-.88,1.264,1.264,0,0,1,.66-1.21,3.307,3.307,0,0,1,1.98-.44v-.11c0-.55-.33-.88-.99-.88a2.218,2.218,0,0,0-1.21.33l-.22-.66a3.581,3.581,0,0,1,1.54-.44c1.21,0,1.76.66,1.76,1.87v1.65c0,.44.11.88.11,1.1m-.99-1.54v-.66c-1.1,0-1.65.33-1.65.88a.763.763,0,0,0,.66.77,1.563,1.563,0,0,0,.66-.22.6.6,0,0,0,.33-.55Z" transform="translate(-32.687 -11.99)"/>
      <path id="Path_1270" data-name="Path 1270" class="cls-2" d="M102.48,19.1h-.88v-.77h0a1.585,1.585,0,0,1-1.43.88,1.568,1.568,0,0,1-1.32-.66,2.7,2.7,0,0,1-.55-1.65,2.8,2.8,0,0,1,.55-1.76,1.774,1.774,0,0,1,1.43-.66,1.44,1.44,0,0,1,1.32.66V12.5h.99v5.39a4.933,4.933,0,0,0-.11,1.21m-.99-1.87v-1.1l-.33-.66a1.563,1.563,0,0,0-.66-.22,1,1,0,0,0-.88.44,2,2,0,0,0,0,2.2,1.083,1.083,0,0,0,1.65.11,1.59,1.59,0,0,0,.22-.77" transform="translate(-32.247 -12.17)"/>
      <path id="Path_1271" data-name="Path 1271" class="cls-2" d="M109.79,16.61a3.324,3.324,0,0,1-.55,1.76,2.239,2.239,0,0,1-1.65.66,1.846,1.846,0,0,1-1.54-.66,2.16,2.16,0,0,1-.55-1.65,2.5,2.5,0,0,1,.66-1.76,2.239,2.239,0,0,1,1.65-.66,1.846,1.846,0,0,1,1.54.66,3.644,3.644,0,0,1,.44,1.65m-1.1.11a3.254,3.254,0,0,0-.22-1.1,1.122,1.122,0,0,0-.88-.55.98.98,0,0,0-.88.55,1.809,1.809,0,0,0-.22,1.1,3.254,3.254,0,0,0,.22,1.1.979.979,0,0,0,1.76,0,3.908,3.908,0,0,0,.22-1.1" transform="translate(-31.527 -11.99)"/>
      <path id="Path_1272" data-name="Path 1272" class="cls-2" d="M114.36,18.93h-.99V16.29c0-.77-.33-1.21-.88-1.21a1.128,1.128,0,0,0-1.1,1.1v2.64h-.99V14.31h.88v.66h0a1.326,1.326,0,0,1,.55-.55,1.185,1.185,0,0,1,.88-.22,1.412,1.412,0,0,1,1.1.44,2.176,2.176,0,0,1,.55,1.54Z" transform="translate(-31.037 -12)"/>
      <path id="Path_1273" data-name="Path 1273" class="cls-2" d="M119.85,15.27h-1.1v2.2c0,.55.22.88.55.88h.44v.77a1.631,1.631,0,0,1-.77.11,1.083,1.083,0,0,1-.88-.33,1.769,1.769,0,0,1-.33-1.21V15.38h-.66v-.77h.66v-.88l.99-.33v1.1h1.1Z" transform="translate(-30.367 -12.08)"/>
      <path id="Path_1274" data-name="Path 1274" class="cls-2" d="M124.55,19.1h-.99V16.57c0-.77-.33-1.21-.88-1.21a1.057,1.057,0,0,0-.99.66V19.1h-.99V12.5h.99v2.75h0a1.677,1.677,0,0,1,1.32-.77,1.072,1.072,0,0,1,.99.44,2.176,2.176,0,0,1,.55,1.54Z" transform="translate(-30.007 -12.17)"/>
      <path id="Path_1275" data-name="Path 1275" class="cls-2" d="M129.26,16.5v.44h-2.97a1.072,1.072,0,0,0,.44.99,1.345,1.345,0,0,0,.99.33,3.954,3.954,0,0,0,1.21-.22l.11.66a3.194,3.194,0,0,1-1.54.33,2.239,2.239,0,0,1-1.65-.66,2.16,2.16,0,0,1-.55-1.65,2.7,2.7,0,0,1,.55-1.65,2.1,2.1,0,0,1,1.54-.77,1.492,1.492,0,0,1,1.43.77,2.028,2.028,0,0,1,.44,1.43m-.99-.33a1.59,1.59,0,0,0-.22-.77.894.894,0,0,0-1.54,0c-.22.22-.22.44-.33.77Z" transform="translate(-29.547 -11.99)"/>
    </g>
  </g>
</svg>
