<svg xmlns="http://www.w3.org/2000/svg" xmlns:xlink="http://www.w3.org/1999/xlink" viewBox="-6297.5 15779.971 187 55">
  <defs>
    <style>
      .cls-1 {
        fill: #1f1f1f;
      }

      .cls-2 {
        fill: #fff;
      }

      .cls-3 {
        fill: #5bc8f3;
      }

      .cls-4 {
        fill: url(#linear-gradient);
      }

      .cls-5 {
        fill: url(#linear-gradient-2);
      }

      .cls-6 {
        fill: url(#linear-gradient-3);
      }
    </style>
    <linearGradient id="linear-gradient" x1="0.813" y1="0.494" x2="-1.57" y2="0.494" gradientUnits="objectBoundingBox">
      <stop offset="0" stop-color="#ffdf00"/>
      <stop offset="0.409" stop-color="#fbbc0e"/>
      <stop offset="0.775" stop-color="#f9a418"/>
      <stop offset="1" stop-color="#f89b1c"/>
    </linearGradient>
    <linearGradient id="linear-gradient-2" x1="0.861" y1="0.176" x2="-0.501" y2="1.954" gradientUnits="objectBoundingBox">
      <stop offset="0" stop-color="#ee4447"/>
      <stop offset="1" stop-color="#c5166c"/>
    </linearGradient>
    <linearGradient id="linear-gradient-3" x1="-0.507" y1="-0.948" x2="0.605" y2="0.488" gradientUnits="objectBoundingBox">
      <stop offset="0" stop-color="#269e6f"/>
      <stop offset="0.051" stop-color="#2ba06f"/>
      <stop offset="0.466" stop-color="#53b26b"/>
      <stop offset="0.797" stop-color="#6bbd69"/>
      <stop offset="1" stop-color="#74c168"/>
    </linearGradient>
  </defs>
  <g id="Group_3396" data-name="Group 3396" transform="translate(-6297.5 15779.971)">
    <g id="Group_253" data-name="Group 253">
      <path id="Path_1276" data-name="Path 1276" class="cls-1" d="M27.35,53.2a25.85,25.85,0,0,1,0-51.7h132a25.85,25.85,0,0,1,0,51.7Z" transform="translate(0.15 0.15)"/>
      <path id="Path_1277" data-name="Path 1277" class="cls-2" d="M159.5,3.3a24.2,24.2,0,0,1,0,48.4H27.5a24.2,24.2,0,0,1,0-48.4h132m0-3.3H27.5a27.5,27.5,0,0,0,0,55h132a27.5,27.5,0,0,0,0-55Z"/>
    </g>
    <g id="Group_255" data-name="Group 255" transform="translate(33.66 15.368)">
      <path id="Path_1278" data-name="Path 1278" class="cls-2" d="M91.5,29.07a4.628,4.628,0,0,0-4.73,4.73,4.7,4.7,0,0,0,4.73,4.73,4.73,4.73,0,1,0,0-9.46Zm0,7.48a2.869,2.869,0,0,1,0-5.72,2.665,2.665,0,0,1,2.64,2.86A2.665,2.665,0,0,1,91.5,36.55ZM81.27,29.07a4.628,4.628,0,0,0-4.73,4.73,4.7,4.7,0,0,0,4.73,4.73A4.628,4.628,0,0,0,86,33.8,4.694,4.694,0,0,0,81.27,29.07Zm0,7.48a2.869,2.869,0,0,1,0-5.72,2.665,2.665,0,0,1,2.64,2.86A2.665,2.665,0,0,1,81.27,36.55ZM69.06,30.5v1.98h4.73a4.159,4.159,0,0,1-1.1,2.53,4.869,4.869,0,0,1-3.63,1.43,5.121,5.121,0,0,1-5.17-5.28,5.189,5.189,0,0,1,5.17-5.28,5.454,5.454,0,0,1,3.63,1.43l1.43-1.43a7.049,7.049,0,0,0-4.95-1.98,7.42,7.42,0,0,0-7.37,7.26,7.42,7.42,0,0,0,7.37,7.26,6.33,6.33,0,0,0,5.06-2.09,6.622,6.622,0,0,0,1.76-4.62,4.125,4.125,0,0,0-.11-1.21Zm49.83,1.54a4.274,4.274,0,0,0-3.96-2.97,4.43,4.43,0,0,0-4.4,4.73,4.6,4.6,0,0,0,4.62,4.73A4.512,4.512,0,0,0,119,36.44l-1.65-1.1a2.681,2.681,0,0,1-2.31,1.32,2.387,2.387,0,0,1-2.31-1.43L119,32.59Zm-6.38,1.54a2.672,2.672,0,0,1,2.42-2.75,1.946,1.946,0,0,1,1.76.99Zm-5.06,4.62h2.09V24.45h-2.09Zm-3.41-8.03h0a3.622,3.622,0,0,0-2.53-1.1A4.726,4.726,0,0,0,97,33.8a4.555,4.555,0,0,0,4.51,4.62,3.158,3.158,0,0,0,2.42-1.1h.11v.66a2.5,2.5,0,0,1-4.84,1.1l-1.76.77a4.538,4.538,0,0,0,4.18,2.75c2.42,0,4.4-1.43,4.4-4.84V29.4h-1.98v.77Zm-2.31,6.38a2.869,2.869,0,0,1,0-5.72,2.646,2.646,0,0,1,2.53,2.86A2.584,2.584,0,0,1,101.73,36.55Zm26.84-12.1h-4.95V38.2h2.09V33.03h2.86a4.3,4.3,0,1,0,0-8.58Zm0,6.6H125.6V26.32h2.97a2.366,2.366,0,1,1,0,4.73Zm12.76-1.98a3.7,3.7,0,0,0-3.63,2.09l1.87.77a1.943,1.943,0,0,1,1.87-.99,2.067,2.067,0,0,1,2.2,1.76v.11a4.363,4.363,0,0,0-2.09-.55c-1.98,0-3.96,1.1-3.96,3.08A3.223,3.223,0,0,0,141,38.42a3.1,3.1,0,0,0,2.64-1.32h.11v1.1h1.98V32.81A4.076,4.076,0,0,0,141.33,29.07ZM141,36.55c-.66,0-1.65-.33-1.65-1.21,0-1.1,1.21-1.43,2.2-1.43a4.254,4.254,0,0,1,1.87.44A2.4,2.4,0,0,1,141,36.55Zm11.66-7.15-2.31,5.94h-.11l-2.42-5.94h-2.2l3.63,8.36-2.09,4.62h2.09l5.61-12.98h-2.2Zm-18.48,8.8h2.09V24.45h-2.09Z" transform="translate(-27.48 -12.978)"/>
      <g id="Group_254" data-name="Group 254">
        <path id="Path_1279" data-name="Path 1279" class="cls-3" d="M31.15,14.4a2.176,2.176,0,0,0-.55,1.54V40.25a2.176,2.176,0,0,0,.55,1.54l.11.11L44.79,28.26v-.22L31.15,14.4Z" transform="translate(-30.6 -13.928)"/>
        <path id="Path_1280" data-name="Path 1280" class="cls-4" d="M48.12,31.94,43.5,27.43v-.22l4.51-4.51.11.11,5.39,3.08c1.54.88,1.54,2.31,0,3.19l-5.39,2.86Z" transform="translate(-29.31 -13.098)"/>
        <path id="Path_1281" data-name="Path 1281" class="cls-5" d="M49.47,31.52,44.85,26.9,31.1,40.54c.55.55,1.32.55,2.31.11l16.06-9.13" transform="translate(-30.55 -12.678)"/>
        <path id="Path_1282" data-name="Path 1282" class="cls-6" d="M49.47,23.463l-16.06-9.13a1.783,1.783,0,0,0-2.31.11l13.75,13.75Z" transform="translate(-30.55 -13.971)"/>
      </g>
    </g>
    <g id="Group_256" data-name="Group 256" transform="translate(67.76 12.65)">
      <path id="Path_1283" data-name="Path 1283" class="cls-2" d="M61.6,14.58h0a3.075,3.075,0,0,1,3.08-3.08,3.151,3.151,0,0,1,2.31.88L66,13.48a2.317,2.317,0,0,0-1.43-.55,1.417,1.417,0,0,0-1.43,1.54h0a1.6,1.6,0,0,0,1.54,1.65,1.7,1.7,0,0,0,.88-.22v-.66h-1.1V14.03H67.1v2.64a3.712,3.712,0,0,1-2.53.88A2.891,2.891,0,0,1,61.6,14.58Z" transform="translate(-61.6 -11.5)"/>
      <path id="Path_1284" data-name="Path 1284" class="cls-2" d="M67.5,11.6h4.62v1.32H69.15v.88H71.9v1.21H69.15v.88h3.08v1.32H67.5Z" transform="translate(-61.01 -11.49)"/>
      <path id="Path_1285" data-name="Path 1285" class="cls-2" d="M73.96,13.03H72.2V11.6h5.06v1.43H75.5v4.4H73.85v-4.4Z" transform="translate(-60.54 -11.49)"/>
      <path id="Path_1286" data-name="Path 1286" class="cls-2" d="M79.6,11.6h1.65v5.83H79.6Z" transform="translate(-59.8 -11.49)"/>
      <path id="Path_1287" data-name="Path 1287" class="cls-2" d="M83.46,13.03H81.7V11.6h5.06v1.43H85v4.4H83.35v-4.4Z" transform="translate(-59.59 -11.49)"/>
      <path id="Path_1288" data-name="Path 1288" class="cls-2" d="M88.9,14.58h0a3.075,3.075,0,0,1,3.08-3.08,2.984,2.984,0,0,1,3.08,2.97h0a2.984,2.984,0,0,1-3.08,2.97A2.833,2.833,0,0,1,88.9,14.58Zm4.62,0h0a1.443,1.443,0,0,0-1.54-1.54,1.417,1.417,0,0,0-1.43,1.54h0a1.417,1.417,0,0,0,1.43,1.54A1.5,1.5,0,0,0,93.52,14.58Z" transform="translate(-58.87 -11.5)"/>
      <path id="Path_1289" data-name="Path 1289" class="cls-2" d="M95.3,11.6h1.54l2.42,3.08V11.6h1.54v5.83H99.37l-2.42-3.19v3.19H95.41V11.6Z" transform="translate(-58.23 -11.49)"/>
    </g>
  </g>
</svg>
